# xmcd
#
# Track frame offsets: 
#        150
#        15520
#        27980
#        40628
#        57501
#        74328
#        87627
#        101486
#        115100
#        130006
#        147113
#        163752
#        177712
#        192662
#        208912
#
# Disc length: 2965 seconds
#
# Revision: 0
# Processed by: cddbd v1.5.2PL0 Copyright (c) Steve Scherf et al.
# Submitted via: ExactAudioCopy v1.5
#
DISCID=dc0b930f
DTITLE=Pedro Fernández - Antología musical
DYEAR=2013
DGENRE=Folk
TTITLE0=Hasta que el dinero nos separe
TTITLE1=Quien será
TTITLE2=Bésame morenita
TTITLE3=Lluvia de plata
TTITLE4=Sin verte
TTITLE5=Qué va a sentir tu marido
TTITLE6=Me quedé con las ganas
TTITLE7=Si nos dejan
TTITLE8=Despacito
TTITLE9=Vamos a platicar
TTITLE10=Sin tu amor
TTITLE11=Mi cariñito
TTITLE12=Lo mucho que te quiero
TTITLE13=Amarte a la antigua
TTITLE14=Escúchame
EXTD=
EXTT0=
EXTT1=
EXTT2=
EXTT3=
EXTT4=
EXTT5=
EXTT6=
EXTT7=
EXTT8=
EXTT9=
EXTT10=
EXTT11=
EXTT12=
EXTT13=
EXTT14=
PLAYORDER=
